<svg width="20" height="20" viewBox="0 0 20 20" fill="none" xmlns="http://www.w3.org/2000/svg">
<path d="M19.9906 15.7781C20.0358 16.0926 19.9236 16.4092 19.6906 16.6251L16.8786 19.4161C16.7371 19.5676 16.5672 19.6899 16.3786 19.7761C16.1896 19.8702 15.9872 19.9346 15.7786 19.9671C15.7646 19.9671 15.7222 19.9708 15.6516 19.9781C15.5809 19.9854 15.4892 19.9891 15.3766 19.9891C14.9406 19.9722 14.5063 19.9261 14.0766 19.8511C13.3193 19.7115 12.581 19.484 11.8766 19.1731C10.8446 18.7241 9.85587 18.1819 8.92257 17.5531C7.64839 16.6918 6.46795 15.6994 5.40057 14.5921C4.5084 13.7277 3.68709 12.793 2.94457 11.7971C2.36359 11.0145 1.84085 10.1903 1.38057 9.33108C1.02665 8.67268 0.728926 7.98557 0.490574 7.27708C0.31761 6.75853 0.183899 6.2277 0.0905738 5.68908C0.0255259 5.34365 -0.00462578 4.99255 0.000573751 4.64108C0.0172404 4.38708 0.0255738 4.24542 0.0255738 4.21608C0.0580863 4.00747 0.122507 3.8051 0.216574 3.61608C0.302759 3.4275 0.425063 3.25763 0.576574 3.11608L3.39157 0.300085C3.56643 0.110727 3.81184 0.00214187 4.06957 8.45984e-05C4.24506 -0.002483 4.41641 0.0534598 4.55657 0.159085C4.6994 0.266792 4.82139 0.399629 4.91657 0.551085L7.18157 4.85108C7.30859 5.07605 7.34642 5.34053 7.28757 5.59208C7.23739 5.84876 7.11209 6.08474 6.92757 6.27008L5.89057 7.30908C5.85589 7.34896 5.8306 7.39612 5.81657 7.44708C5.79769 7.49809 5.78689 7.55174 5.78457 7.60608C5.86262 7.96114 5.99091 8.30326 6.16557 8.62208C6.39368 9.05498 6.65548 9.46926 6.94857 9.86108C7.40167 10.4622 7.90336 11.0251 8.44857 11.5441C8.97136 12.0937 9.53789 12.6001 10.1426 13.0581C10.5351 13.3535 10.9492 13.6189 11.3816 13.8521C11.6218 13.9858 11.8778 14.089 12.1436 14.1591L12.4086 14.2121C12.4559 14.208 12.5023 14.1972 12.5466 14.1801C12.5975 14.166 12.6447 14.1407 12.6846 14.1061L13.8916 12.8781C14.1344 12.6568 14.4521 12.5357 14.7806 12.5391C14.9792 12.5292 15.1768 12.5731 15.3526 12.6661H15.3736L19.4596 15.0801C19.7286 15.2257 19.922 15.48 19.9906 15.7781Z" fill="#659B91"/>
</svg>
