<svg width="60" height="60" viewBox="0 0 60 60" fill="none" xmlns="http://www.w3.org/2000/svg">
<circle cx="30" cy="30" r="30" fill="#F76C6C"/>
<path d="M19.6404 32.4981C19.4099 32.3144 19.2975 32.0698 19.3028 31.7645L19.3786 28.1947C19.3726 28.0239 19.4049 27.8425 19.4757 27.6507C19.5464 27.4587 19.6369 27.2919 19.7472 27.1501C19.7563 27.1413 19.7815 27.1124 19.8228 27.0637C19.8641 27.0151 19.9212 26.9554 19.9943 26.8848C20.168 26.7171 20.4777 26.4754 20.9234 26.1598C21.3692 25.8441 21.9856 25.5315 22.7725 25.2218C23.5596 24.912 24.5346 24.6461 25.6973 24.4238C26.8601 24.2015 28.2364 24.1088 29.8259 24.1455C31.0745 24.1583 32.1869 24.2496 33.1632 24.4194C34.1396 24.5891 34.9917 24.7949 35.7197 25.0367C36.4477 25.2785 37.0676 25.5364 37.5794 25.8104C38.0912 26.0843 38.5089 26.3432 38.8326 26.5869C39.1563 26.8306 39.393 27.0392 39.5427 27.2125C39.6924 27.3858 39.7761 27.4816 39.7937 27.4999C39.899 27.6454 39.9836 27.8154 40.0476 28.0096C40.1116 28.2039 40.1376 28.3863 40.1256 28.5568L40.0631 32.1404C40.0587 32.3919 39.9743 32.597 39.8098 32.7559C39.691 32.8706 39.5528 32.9378 39.3952 32.9575C39.2377 32.9772 39.0784 32.9677 38.9173 32.9289L34.7635 31.5627C34.5401 31.4959 34.3628 31.3581 34.2317 31.1492C34.1006 30.9402 34.0371 30.719 34.0411 30.4855L34.0642 29.1652C34.0648 29.1293 34.0521 29.0842 34.0261 29.0298C34.0001 28.9754 33.9739 28.9346 33.9474 28.9071C33.7255 28.7505 33.4315 28.6106 33.0653 28.4875C32.7439 28.374 32.3167 28.27 31.7838 28.1754C31.2509 28.0807 30.5757 28.0308 29.7582 28.0255C28.9411 28.0022 28.2601 28.0285 27.7152 28.1043C27.1705 28.1802 26.7376 28.267 26.4169 28.3647C26.0963 28.4624 25.8678 28.555 25.7316 28.6425L25.5272 28.7736C25.5089 28.7913 25.4858 28.8269 25.4579 28.8803C25.4301 28.9337 25.4158 28.9784 25.4152 29.0143L25.4016 30.5638C25.3782 30.869 25.257 31.1273 25.0377 31.3391C24.8823 31.4892 24.7325 31.5808 24.5882 31.6142L24.5745 31.6274L20.42 32.6195C20.1132 32.686 19.8534 32.6456 19.6404 32.4981Z" fill="white"/>
</svg>
