<svg width="160" height="160" viewBox="0 0 160 160" fill="none" xmlns="http://www.w3.org/2000/svg">
<path d="M86.6663 110C86.6663 113.333 82.233 113.333 82.233 113.333H77.7663C73.333 113.333 73.333 110 73.333 110V96.6665H86.6663V110Z" fill="#E8E6EE"/>
<path fill-rule="evenodd" clip-rule="evenodd" d="M100 103.333V123.333C99.989 127.011 97.0107 129.989 93.3333 130H66.6667C62.9893 129.989 60.011 127.011 60 123.333V103.333C60.011 99.6558 62.9893 96.6775 66.6667 96.6665H73.3333V110C73.3333 110 73.3333 113.333 77.7667 113.333H82.2333C82.2333 113.333 86.6667 113.333 86.6667 110V96.6665H93.3333C97.0107 96.6775 99.989 99.6558 100 103.333Z" fill="#E8E6EE"/>
<path d="M110 60L103.333 66.6667H56.6667L50 60C50 43.4315 63.4315 30 80 30C96.5685 30 110 43.4315 110 60Z" fill="#E8E6EE"/>
<path fill-rule="evenodd" clip-rule="evenodd" d="M93.3332 93.333H66.6665C61.1437 93.333 56.6665 97.8102 56.6665 103.333V123.333C56.6665 128.856 61.1437 133.333 66.6665 133.333H93.3332C98.856 133.333 103.333 128.856 103.333 123.333V103.333C103.333 97.8102 98.856 93.333 93.3332 93.333ZM76.6665 99.9997H83.3332V109.776C82.9768 109.907 82.6024 109.982 82.2232 110H77.7765C77.0432 110 76.7098 109.856 76.6665 110V99.9997ZM96.6665 123.333C96.6665 125.174 95.1741 126.666 93.3332 126.666H66.6665C64.8256 126.666 63.3332 125.174 63.3332 123.333V103.333C63.3332 101.492 64.8256 99.9997 66.6665 99.9997H69.9998V110C70.0802 111.94 70.9633 113.761 72.4379 115.025C73.9126 116.289 75.8463 116.884 77.7765 116.666H82.2232C84.148 116.858 86.0674 116.254 87.536 114.995C89.0046 113.736 89.8947 111.931 89.9998 110V99.9997H93.3332C95.1741 99.9997 96.6665 101.492 96.6665 103.333V123.333Z" fill="#659B91"/>
<path fill-rule="evenodd" clip-rule="evenodd" d="M113.333 59.9998C113.333 41.5903 98.4093 26.6665 79.9998 26.6665C61.5903 26.6665 46.6665 41.5903 46.6665 59.9998C46.6667 60.8838 47.018 61.7315 47.6432 62.3565L54.0198 68.7332L63.8098 85.0665C64.774 86.6072 66.7946 87.0915 68.3524 86.1554C69.9103 85.2192 70.431 83.2077 69.5232 81.6332L62.5532 69.9998H76.6665V83.3332C76.6665 85.1741 78.1589 86.6665 79.9998 86.6665C81.8408 86.6665 83.3332 85.1741 83.3332 83.3332V69.9998H97.4465L90.4765 81.6165C89.8372 82.6382 89.7991 83.9254 90.377 84.9831C90.9549 86.0407 92.0587 86.704 93.2639 86.7179C94.469 86.7317 95.5878 86.0939 96.1898 85.0498L105.98 68.7165L112.357 62.3398C112.978 61.7189 113.329 60.878 113.333 59.9998ZM79.9999 33.3332C94.2031 33.3483 105.908 44.4818 106.633 58.6665L101.967 63.3332H58.0465L53.3665 58.6665C54.0919 44.4818 65.7966 33.3483 79.9999 33.3332Z" fill="#659B91"/>
<path fill-rule="evenodd" clip-rule="evenodd" d="M79.9998 56.6667C81.8408 56.6667 83.3332 55.1743 83.3332 53.3333V43.3333C83.3332 41.4924 81.8408 40 79.9998 40C78.1589 40 76.6665 41.4924 76.6665 43.3333V53.3333C76.6665 55.1743 78.1589 56.6667 79.9998 56.6667Z" fill="#659B91"/>
<path fill-rule="evenodd" clip-rule="evenodd" d="M93.3333 56.6665C95.1743 56.6665 96.6667 55.1741 96.6667 53.3332V49.9998C96.6667 48.1589 95.1743 46.6665 93.3333 46.6665C91.4924 46.6665 90 48.1589 90 49.9998V53.3332C90 55.1741 91.4924 56.6665 93.3333 56.6665Z" fill="#659B91"/>
<path fill-rule="evenodd" clip-rule="evenodd" d="M66.6663 56.6665C68.5073 56.6665 69.9997 55.1741 69.9997 53.3332V49.9998C69.9997 48.1589 68.5073 46.6665 66.6663 46.6665C64.8254 46.6665 63.333 48.1589 63.333 49.9998V53.3332C63.333 55.1741 64.8254 56.6665 66.6663 56.6665Z" fill="#659B91"/>
</svg>
