<svg width="25" height="24" viewBox="0 0 25 24" fill="none" xmlns="http://www.w3.org/2000/svg">
<path d="M21.21 11.5C21.2134 12.8199 20.905 14.1219 20.31 15.3C19.6044 16.7118 18.5197 17.8992 17.1774 18.7293C15.8351 19.5594 14.2882 19.9994 12.71 20C11.3901 20.0035 10.0881 19.6951 8.90996 19.1L3.20996 21L5.10996 15.3C4.51489 14.1219 4.20652 12.8199 4.20996 11.5C4.21057 9.92179 4.65057 8.37488 5.48068 7.03258C6.31079 5.69028 7.49822 4.6056 8.90996 3.90003C10.0881 3.30496 11.3901 2.99659 12.71 3.00003H13.21C15.2943 3.11502 17.263 3.99479 18.7391 5.47089C20.2152 6.94699 21.095 8.91568 21.21 11V11.5Z" fill="#659B91"/>
</svg>
