<svg width="20" height="20" viewBox="0 0 20 20" fill="none" xmlns="http://www.w3.org/2000/svg">
<path fill-rule="evenodd" clip-rule="evenodd" d="M4.73869 8.97625C4.73869 6.63924 6.63924 4.73869 8.97625 4.73869C11.3133 4.73869 13.2138 6.63924 13.2138 8.97625C13.2138 11.3133 11.3133 13.2138 8.97625 13.2138C6.63924 13.2138 4.73869 11.3133 4.73869 8.97625ZM15.8319 14.8333L13.4342 12.4348C14.1779 11.4785 14.6264 10.28 14.6264 8.97626C14.6264 5.86094 12.0916 3.32617 8.97626 3.32617C5.86094 3.32617 3.32617 5.86094 3.32617 8.97626C3.32617 12.0916 5.86094 14.6264 8.97626 14.6264C10.28 14.6264 11.4785 14.1779 12.4348 13.4342L14.8333 15.8319C14.971 15.9697 15.1518 16.0389 15.3326 16.0389C15.5134 16.0389 15.6942 15.9697 15.8319 15.8319C16.1081 15.5558 16.1081 15.1094 15.8319 14.8333Z" fill="#659B91"/>
</svg>
