<svg width="29" height="24" viewBox="0 0 29 24" fill="none" xmlns="http://www.w3.org/2000/svg">
<path d="M7.61777 13.6616H8.56465C8.66097 13.6616 8.74001 13.7339 8.75153 13.8296C8.91089 15.1368 9.49329 16.3531 10.4331 17.2936C11.5563 18.412 13.044 19.0337 14.6239 19.0337C16.1391 19.0446 17.5691 18.4808 18.6728 17.4443C18.7506 17.3713 18.7506 17.2465 18.6751 17.171L17.1896 15.6856C16.5112 16.3656 15.5954 16.7451 14.6239 16.7451C13.6594 16.7451 12.7538 16.3569 12.061 15.6705C11.5685 15.1781 11.2427 14.5582 11.1055 13.8917C11.0818 13.7761 11.1749 13.6693 11.2927 13.6693H12.0959C12.2651 13.6693 12.3499 13.4648 12.2306 13.3451L9.99537 11.1022C9.92145 11.028 9.80081 11.0277 9.72657 11.1019L7.48401 13.3368C7.36369 13.4565 7.44817 13.6616 7.61777 13.6616Z" fill="#659B91"/>
<path d="M11.9776 10.2426C12.0534 10.3111 12.168 10.3053 12.2406 10.2333C12.8403 9.64101 13.6189 9.29669 14.4758 9.25157C16.1869 9.17477 17.6611 10.3796 17.9648 12.0199C17.9853 12.1309 17.8982 12.2337 17.7856 12.2388L17.0371 12.2733C16.8678 12.281 16.7926 12.4897 16.9181 12.6039L19.0873 14.5767C19.1651 14.6474 19.2854 14.6417 19.3561 14.5636L21.3232 12.3924C21.4368 12.2669 21.3424 12.0669 21.1734 12.0749L20.1683 12.1226C19.8864 9.18789 17.3424 6.95877 14.3648 7.09637C12.9513 7.17125 11.6349 7.75973 10.6486 8.77669C10.5744 8.85349 10.5805 8.97797 10.6598 9.04965L11.9776 10.2426Z" fill="#659B91"/>
<path d="M26.3379 23.8861C27.6954 23.8861 28.8 22.7811 28.8 21.4227V6.1648C28.8 4.80736 27.6954 3.70272 26.3379 3.70272H22.5965L20.7382 0H8.06112L6.20288 3.70272H2.46208C1.10464 3.70272 0 4.80736 0 6.1648V21.4227C0 22.7811 1.10464 23.8861 2.46208 23.8861H26.3379ZM7.73184 6.1808L9.59008 2.47808H19.2096L21.0678 6.1808L26.3226 6.1648V21.4083L2.4784 21.423L2.4624 6.1808H7.73184Z" fill="#659B91"/>
</svg>
