<svg width="79" height="88" viewBox="0 0 79 88" fill="none" xmlns="http://www.w3.org/2000/svg">
<path d="M39.3498 42.4008C50.8383 42.4008 60.229 33.0102 60.229 21.5217C60.229 10.0332 50.8383 0.642578 39.3498 0.642578C27.8613 0.642578 18.4707 10.0332 18.4707 21.5217C18.4707 33.0102 27.8613 42.4008 39.3498 42.4008Z" fill="#190354"/>
<path d="M59.7292 47.1967C55.2337 44.6992 50.5384 46.3975 46.4425 47.7961C43.945 48.6952 41.5474 49.4944 39.2497 49.4944C36.952 49.4944 34.5544 48.6952 32.0569 47.7961C27.961 46.3975 23.2657 44.6992 18.6703 47.1967C6.58237 53.9899 0.0888672 66.9769 0.0888672 84.859V87.9559H78.6103V84.859C78.5104 66.9769 72.0169 53.89 59.7292 47.1967Z" fill="#190354"/>
</svg>
