<svg width="24" height="14" viewBox="0 0 24 14" fill="none" xmlns="http://www.w3.org/2000/svg">
<path d="M21.7618 1.35303C21.5992 1.35303 21.4416 1.40058 21.3037 1.4957L17.0432 4.38083C16.9201 4.46538 16.8462 4.60805 16.8462 4.76129V8.77722C16.8462 8.93046 16.9201 9.07313 17.0432 9.15768L21.3037 12.0428C21.4416 12.1326 21.5992 12.1855 21.7618 12.1855H22.7863C23.0227 12.1855 23.2099 11.9847 23.2099 11.7363V1.80218C23.2099 1.55382 23.0178 1.35303 22.7863 1.35303H21.7618Z" fill="#659B91"/>
<path d="M12.7611 13.5274H2.72132C1.22592 13.5274 0 12.3014 0 10.8113V2.71604C0 1.22063 1.22592 0 2.71604 0H12.7559C14.2513 0 15.4719 1.22592 15.4719 2.71604V10.806C15.4772 12.3014 14.2566 13.5274 12.7611 13.5274Z" fill="#659B91"/>
</svg>
